<?xml version="1.0" encoding="UTF-8" standalone="no"?>
<svg xmlns="http://www.w3.org/2000/svg" width="160" height="40" viewBox="0 0 160 40">
  <g fill="none" fill-rule="evenodd">
    <path fill="#003366" d="M0,0 L45,0 L45,40 L0,40 Z"/>
    <path fill="#FFFFFF" d="M10,10 L10,30 L15,30 L15,22 L22,30 L28,30 L19,20 L28,10 L22,10 L15,18 L15,10 Z"/>
    <path fill="#003366" d="M50,15 L50,30 L55,30 L55,15 Z M50,8 L50,13 L55,13 L55,8 Z"/>
    <path fill="#003366" d="M60,15 L65,15 L65,17 C66,15.5 68,14.5 70,14.5 C75,14.5 76,17.5 76,22 L76,30 L71,30 L71,23 C71,20.5 70.5,19 68,19 C65.5,19 65,20.5 65,23 L65,30 L60,30 L60,15 Z"/>
    <path fill="#003366" d="M80,15 L85,15 L85,16.5 C86,15 87.5,14.5 89,14.5 C90,14.5 91,14.75 91.5,15 L90,20 C89.5,19.5 88.5,19.25 87.5,19.25 C85,19.25 85,21 85,23 L85,30 L80,30 L80,15 Z"/>
    <path fill="#003366" d="M95,15 L100,15 L100,30 L95,30 Z M95,8 L100,8 L100,13 L95,13 Z"/>
    <path fill="#003366" d="M135,14.5 C140,14.5 144,17.5 144,22.5 C144,27.5 140,30.5 135,30.5 C130,30.5 126,27.5 126,22.5 C126,17.5 130,14.5 135,14.5 Z M135,25.5 C137,25.5 139,24.5 139,22.5 C139,20.5 137,19.5 135,19.5 C133,19.5 131,20.5 131,22.5 C131,24.5 133,25.5 135,25.5 Z"/>
    <path fill="#003366" d="M105,15 L110,15 L110,30 L105,30 L105,15 Z M105,8 L110,8 L110,13 L105,13 L105,8 Z"/>
    <path fill="#003366" d="M115,30 L120,30 L120,8 L115,8 L115,30 Z"/>
    <path fill="#003366" d="M150,8 L150,30 L145,30 L145,8 Z"/>
    <path fill="#003366" d="M153,15 L158,15 L158,17 C159,15.5 161,14.5 163,14.5 C168,14.5 169,17.5 169,22 L169,30 L164,30 L164,23 C164,20.5 163.5,19 161,19 C158.5,19 158,20.5 158,23 L158,30 L153,30 L153,15 Z"/>
  </g>
</svg>
